<svg id="visual" viewBox="0 0 900 600" width="900" height="600" xmlns="http://www.w3.org/2000/svg" xmlns:xlink="http://www.w3.org/1999/xlink" version="1.1"><rect x="0" y="0" width="900" height="600" fill="#8f8c8c"></rect><defs><linearGradient id="grad1_0" x1="33.3%" y1="100%" x2="100%" y2="0%"><stop offset="20%" stop-color="#8f8c8c" stop-opacity="1"></stop><stop offset="80%" stop-color="#8f8c8c" stop-opacity="1"></stop></linearGradient></defs><defs><linearGradient id="grad2_0" x1="0%" y1="100%" x2="66.7%" y2="0%"><stop offset="20%" stop-color="#8f8c8c" stop-opacity="1"></stop><stop offset="80%" stop-color="#8f8c8c" stop-opacity="1"></stop></linearGradient></defs><g transform="translate(900, 600)"><path d="M-486.7 0C-478.2 -27.6 -469.7 -55.2 -459.9 -81.1C-450.1 -106.9 -439.1 -131 -430.4 -156.6C-421.6 -182.3 -415.1 -209.4 -399.2 -230.5C-383.3 -251.6 -358.1 -266.6 -338.6 -284.1C-319.1 -301.6 -305.5 -321.5 -290.5 -346.3C-275.6 -371 -259.3 -400.7 -232 -401.8C-204.7 -403 -166.3 -375.7 -141.6 -389C-116.9 -402.4 -105.8 -456.3 -84.5 -479.4C-63.2 -502.4 -31.6 -494.6 0 -486.7L0 0Z" fill="#F7770F"></path></g><g transform="translate(0, 0)"><path d="M486.7 0C453.3 23.9 419.9 47.8 406.7 71.7C393.5 95.6 400.6 119.5 405.9 147.8C411.3 176 415.1 208.7 407 235C399 261.3 379.3 281.2 360 302.1C340.8 323 322.2 344.8 297.6 354.7C273 364.5 242.6 362.4 222 384.5C201.4 406.7 190.8 453.2 166.5 457.4C142.2 461.6 104.3 423.6 74.3 421.5C44.3 419.4 22.2 453.1 0 486.7L0 0Z" fill="#F7770F"></path></g></svg>