<svg id="visual" viewBox="0 0 900 600" width="900" height="600" xmlns="http://www.w3.org/2000/svg" xmlns:xlink="http://www.w3.org/1999/xlink" version="1.1"><rect x="0" y="0" width="900" height="600" fill="#8f8c8c"></rect><defs><linearGradient id="grad1_0" x1="33.3%" y1="0%" x2="100%" y2="100%"><stop offset="20%" stop-color="#bc2212" stop-opacity="1"></stop><stop offset="80%" stop-color="#bc2212" stop-opacity="1"></stop></linearGradient></defs><defs><linearGradient id="grad1_1" x1="33.3%" y1="0%" x2="100%" y2="100%"><stop offset="20%" stop-color="#bc2212" stop-opacity="1"></stop><stop offset="80%" stop-color="#8f8c8c" stop-opacity="1"></stop></linearGradient></defs><defs><linearGradient id="grad2_0" x1="0%" y1="0%" x2="66.7%" y2="100%"><stop offset="20%" stop-color="#bc2212" stop-opacity="1"></stop><stop offset="80%" stop-color="#bc2212" stop-opacity="1"></stop></linearGradient></defs><defs><linearGradient id="grad2_1" x1="0%" y1="0%" x2="66.7%" y2="100%"><stop offset="20%" stop-color="#8f8c8c" stop-opacity="1"></stop><stop offset="80%" stop-color="#bc2212" stop-opacity="1"></stop></linearGradient></defs><g transform="translate(900, 0)"><path d="M0 513.8C-35.2 487.9 -70.4 461.9 -100.4 439.7C-130.3 417.5 -155 399 -190 394.6C-225.1 390.3 -270.7 400.1 -313 392.5C-355.3 384.8 -394.5 359.7 -401.7 320.3C-408.9 280.9 -384.1 227.2 -400 192.6C-415.9 158.1 -472.5 142.6 -498.2 113.7C-523.9 84.8 -518.9 42.4 -513.8 0L0 0Z" fill="#b25e58"></path><path d="M0 256.9C-17.6 243.9 -35.2 231 -50.2 219.8C-65.1 208.7 -77.5 199.5 -95 197.3C-112.6 195.1 -135.3 200.1 -156.5 196.2C-177.7 192.4 -197.2 179.9 -200.8 160.2C-204.5 140.5 -192.1 113.6 -200 96.3C-208 79 -236.2 71.3 -249.1 56.9C-262 42.4 -259.4 21.2 -256.9 0L0 0Z" fill="#bc2212"></path></g><g transform="translate(0, 600)"><path d="M0 -513.8C39.5 -509.7 79 -505.5 110.1 -482.6C141.3 -459.7 164.1 -417.9 189.6 -393.7C215.1 -369.5 243.4 -362.9 285.6 -358.1C327.7 -353.3 383.6 -350.4 401.7 -320.3C419.8 -290.3 400 -233.1 401.8 -193.5C403.7 -153.9 427.2 -131.9 449.4 -102.6C471.7 -73.3 492.7 -36.6 513.8 0L0 0Z" fill="#b25e58"></path><path d="M0 -256.9C19.8 -254.8 39.5 -252.8 55.1 -241.3C70.6 -229.8 82 -209 94.8 -196.9C107.6 -184.8 121.7 -181.4 142.8 -179C163.8 -176.6 191.8 -175.2 200.8 -160.2C209.9 -145.1 200 -116.6 200.9 -96.8C201.8 -77 213.6 -66 224.7 -51.3C235.9 -36.6 246.4 -18.3 256.9 0L0 0Z" fill="#bc2212"></path></g></svg>