<svg id="visual" viewBox="0 0 900 600" width="900" height="600" xmlns="http://www.w3.org/2000/svg" xmlns:xlink="http://www.w3.org/1999/xlink" version="1.1"><rect x="0" y="0" width="900" height="600" fill="#c5c0c0"></rect><defs><linearGradient id="grad1_0" x1="33.3%" y1="0%" x2="100%" y2="100%"><stop offset="20%" stop-color="#9f1e11" stop-opacity="1"></stop><stop offset="80%" stop-color="#9f1e11" stop-opacity="1"></stop></linearGradient></defs><defs><linearGradient id="grad1_1" x1="33.3%" y1="0%" x2="100%" y2="100%"><stop offset="20%" stop-color="#9f1e11" stop-opacity="1"></stop><stop offset="80%" stop-color="#b24b40" stop-opacity="1"></stop></linearGradient></defs><defs><linearGradient id="grad1_2" x1="33.3%" y1="0%" x2="100%" y2="100%"><stop offset="20%" stop-color="#bf736c" stop-opacity="1"></stop><stop offset="80%" stop-color="#b24b40" stop-opacity="1"></stop></linearGradient></defs><defs><linearGradient id="grad1_3" x1="33.3%" y1="0%" x2="100%" y2="100%"><stop offset="20%" stop-color="#bf736c" stop-opacity="1"></stop><stop offset="80%" stop-color="#c59997" stop-opacity="1"></stop></linearGradient></defs><defs><linearGradient id="grad1_4" x1="33.3%" y1="0%" x2="100%" y2="100%"><stop offset="20%" stop-color="#c5c0c0" stop-opacity="1"></stop><stop offset="80%" stop-color="#c59997" stop-opacity="1"></stop></linearGradient></defs><defs><linearGradient id="grad2_0" x1="0%" y1="0%" x2="66.7%" y2="100%"><stop offset="20%" stop-color="#9f1e11" stop-opacity="1"></stop><stop offset="80%" stop-color="#9f1e11" stop-opacity="1"></stop></linearGradient></defs><defs><linearGradient id="grad2_1" x1="0%" y1="0%" x2="66.7%" y2="100%"><stop offset="20%" stop-color="#b24b40" stop-opacity="1"></stop><stop offset="80%" stop-color="#9f1e11" stop-opacity="1"></stop></linearGradient></defs><defs><linearGradient id="grad2_2" x1="0%" y1="0%" x2="66.7%" y2="100%"><stop offset="20%" stop-color="#b24b40" stop-opacity="1"></stop><stop offset="80%" stop-color="#bf736c" stop-opacity="1"></stop></linearGradient></defs><defs><linearGradient id="grad2_3" x1="0%" y1="0%" x2="66.7%" y2="100%"><stop offset="20%" stop-color="#c59997" stop-opacity="1"></stop><stop offset="80%" stop-color="#bf736c" stop-opacity="1"></stop></linearGradient></defs><defs><linearGradient id="grad2_4" x1="0%" y1="0%" x2="66.7%" y2="100%"><stop offset="20%" stop-color="#c59997" stop-opacity="1"></stop><stop offset="80%" stop-color="#c5c0c0" stop-opacity="1"></stop></linearGradient></defs><g transform="translate(900, 0)"><path d="M0 513.8C-30.8 478 -61.6 442.3 -100.1 438.7C-138.6 435.2 -184.8 463.9 -220.8 458.6C-256.9 453.3 -282.9 414.1 -303.6 380.8C-324.4 347.4 -340 320 -372.9 297.4C-405.9 274.8 -456.2 256.9 -462.9 222.9C-469.6 188.9 -432.6 138.9 -433.8 99C-435 59.2 -474.4 29.6 -513.8 0L0 0Z" fill="#c6acac"></path><path d="M0 411C-24.7 382.4 -49.3 353.8 -80.1 351C-110.9 348.1 -147.8 371.1 -176.7 366.9C-205.5 362.7 -226.3 331.3 -242.9 304.6C-259.5 277.9 -272 256 -298.3 237.9C-324.7 219.8 -365 205.5 -370.3 178.3C-375.7 151.2 -346.1 111.1 -347.1 79.2C-348 47.3 -379.5 23.7 -411 0L0 0Z" fill="#c38682"></path><path d="M0 308.3C-18.5 286.8 -37 265.4 -60.1 263.2C-83.2 261.1 -110.9 278.3 -132.5 275.2C-154.1 272 -169.7 248.4 -182.2 228.5C-194.6 208.5 -204 192 -223.8 178.4C-243.5 164.9 -273.7 154.1 -277.7 133.8C-281.8 113.4 -259.6 83.3 -260.3 59.4C-261 35.5 -284.7 17.8 -308.3 0L0 0Z" fill="#b95f56"></path><path d="M0 205.5C-12.3 191.2 -24.7 176.9 -40.1 175.5C-55.5 174.1 -73.9 185.5 -88.3 183.4C-102.8 181.3 -113.1 165.6 -121.5 152.3C-129.8 139 -136 128 -149.2 119C-162.4 109.9 -182.5 102.8 -185.2 89.2C-187.8 75.6 -173.1 55.5 -173.5 39.6C-174 23.7 -189.8 11.8 -205.5 0L0 0Z" fill="#a93729"></path><path d="M0 102.8C-6.2 95.6 -12.3 88.5 -20 87.7C-27.7 87 -37 92.8 -44.2 91.7C-51.4 90.7 -56.6 82.8 -60.7 76.2C-64.9 69.5 -68 64 -74.6 59.5C-81.2 55 -91.2 51.4 -92.6 44.6C-93.9 37.8 -86.5 27.8 -86.8 19.8C-87 11.8 -94.9 5.9 -102.8 0L0 0Z" fill="#9f1e11"></path></g><g transform="translate(0, 600)"><path d="M0 -513.8C40.1 -516.1 80.2 -518.5 114.3 -500.9C148.5 -483.4 176.7 -445.9 199.6 -414.4C222.5 -383 240.2 -357.4 273.1 -342.4C306 -327.5 354.1 -323 372.9 -297.4C391.7 -271.8 381.2 -224.9 399.1 -192.2C417.1 -159.5 463.6 -140.9 487.5 -111.3C511.3 -81.6 512.6 -40.8 513.8 0L0 0Z" fill="#c6acac"></path><path d="M0 -411C32.1 -412.9 64.2 -414.8 91.5 -400.7C118.8 -386.7 141.3 -356.7 159.7 -331.6C178 -306.4 192.1 -285.9 218.5 -274C244.8 -262 283.3 -258.4 298.3 -237.9C313.4 -217.4 304.9 -179.9 319.3 -153.8C333.7 -127.6 370.9 -112.8 390 -89C409.1 -65.3 410 -32.6 411 0L0 0Z" fill="#c38682"></path><path d="M0 -308.3C24.1 -309.7 48.1 -311.1 68.6 -300.5C89.1 -290 106 -267.6 119.8 -248.7C133.5 -229.8 144.1 -214.5 163.9 -205.5C183.6 -196.5 212.5 -193.8 223.8 -178.4C235 -163.1 228.7 -135 239.5 -115.3C250.3 -95.7 278.2 -84.6 292.5 -66.8C306.8 -48.9 307.5 -24.5 308.3 0L0 0Z" fill="#b95f56"></path><path d="M0 -205.5C16 -206.4 32.1 -207.4 45.7 -200.4C59.4 -193.3 70.7 -178.4 79.8 -165.8C89 -153.2 96.1 -143 109.2 -137C122.4 -131 141.7 -129.2 149.2 -119C156.7 -108.7 152.5 -90 159.7 -76.9C166.8 -63.8 185.4 -56.4 195 -44.5C204.5 -32.6 205 -16.3 205.5 0L0 0Z" fill="#a93729"></path><path d="M0 -102.8C8 -103.2 16 -103.7 22.9 -100.2C29.7 -96.7 35.3 -89.2 39.9 -82.9C44.5 -76.6 48 -71.5 54.6 -68.5C61.2 -65.5 70.8 -64.6 74.6 -59.5C78.3 -54.4 76.2 -45 79.8 -38.4C83.4 -31.9 92.7 -28.2 97.5 -22.3C102.3 -16.3 102.5 -8.2 102.8 0L0 0Z" fill="#9f1e11"></path></g></svg>