<svg id="visual" viewBox="0 0 900 600" width="900" height="600" xmlns="http://www.w3.org/2000/svg" xmlns:xlink="http://www.w3.org/1999/xlink" version="1.1"><rect x="0" y="0" width="900" height="600" fill="#CCCCCC"></rect><path d="M0 329L15 342.3C30 355.7 60 382.3 90 410.3C120 438.3 150 467.7 180 460.8C210 454 240 411 270 397.5C300 384 330 400 360 412.2C390 424.3 420 432.7 450 420.2C480 407.7 510 374.3 540 349.3C570 324.3 600 307.7 630 332.2C660 356.7 690 422.3 720 418.2C750 414 780 340 810 309.2C840 278.3 870 290.7 885 296.8L900 303L900 601L885 601C870 601 840 601 810 601C780 601 750 601 720 601C690 601 660 601 630 601C600 601 570 601 540 601C510 601 480 601 450 601C420 601 390 601 360 601C330 601 300 601 270 601C240 601 210 601 180 601C150 601 120 601 90 601C60 601 30 601 15 601L0 601Z" fill="#7c1006" stroke-linecap="round" stroke-linejoin="miter"></path></svg>