<svg id="visual" viewBox="0 0 900 600" width="900" height="600" xmlns="http://www.w3.org/2000/svg" xmlns:xlink="http://www.w3.org/1999/xlink" version="1.1"><rect x="0" y="0" width="900" height="600" fill="#001122"></rect><path d="M0 332L15 354C30 376 60 420 90 440.3C120 460.7 150 457.3 180 429.8C210 402.3 240 350.7 270 344.3C300 338 330 377 360 404.5C390 432 420 448 450 460.3C480 472.7 510 481.3 540 451.8C570 422.3 600 354.7 630 331.5C660 308.3 690 329.7 720 361.2C750 392.7 780 434.3 810 443.7C840 453 870 430 885 418.5L900 407L900 601L885 601C870 601 840 601 810 601C780 601 750 601 720 601C690 601 660 601 630 601C600 601 570 601 540 601C510 601 480 601 450 601C420 601 390 601 360 601C330 601 300 601 270 601C240 601 210 601 180 601C150 601 120 601 90 601C60 601 30 601 15 601L0 601Z" fill="#0066FF" stroke-linecap="round" stroke-linejoin="miter"></path></svg>