<svg id="visual" viewBox="0 0 900 600" width="900" height="600" xmlns="http://www.w3.org/2000/svg" xmlns:xlink="http://www.w3.org/1999/xlink" version="1.1"><rect x="0" y="0" width="900" height="600" fill="#002233"></rect><path d="M0 306L21.5 329.7C43 353.3 86 400.7 128.8 405C171.7 409.3 214.3 370.7 257.2 349C300 327.3 343 322.7 385.8 325.3C428.7 328 471.3 338 514.2 361C557 384 600 420 642.8 425.5C685.7 431 728.3 406 771.2 399.5C814 393 857 405 878.5 411L900 417L900 601L878.5 601C857 601 814 601 771.2 601C728.3 601 685.7 601 642.8 601C600 601 557 601 514.2 601C471.3 601 428.7 601 385.8 601C343 601 300 601 257.2 601C214.3 601 171.7 601 128.8 601C86 601 43 601 21.5 601L0 601Z" fill="#0066FF" stroke-linecap="round" stroke-linejoin="miter"></path></svg>