<svg id="visual" viewBox="0 0 900 600" width="900" height="600" xmlns="http://www.w3.org/2000/svg" xmlns:xlink="http://www.w3.org/1999/xlink" version="1.1"><rect x="0" y="0" width="900" height="600" fill="#a29e9e"></rect><path d="M0 474L16.7 444C33.3 414 66.7 354 100 328.7C133.3 303.3 166.7 312.7 200 334.8C233.3 357 266.7 392 300 387.5C333.3 383 366.7 339 400 339.5C433.3 340 466.7 385 500 405.3C533.3 425.7 566.7 421.3 600 401.2C633.3 381 666.7 345 700 322.3C733.3 299.7 766.7 290.3 800 301.7C833.3 313 866.7 345 883.3 361L900 377L900 601L883.3 601C866.7 601 833.3 601 800 601C766.7 601 733.3 601 700 601C666.7 601 633.3 601 600 601C566.7 601 533.3 601 500 601C466.7 601 433.3 601 400 601C366.7 601 333.3 601 300 601C266.7 601 233.3 601 200 601C166.7 601 133.3 601 100 601C66.7 601 33.3 601 16.7 601L0 601Z" fill="#7c1006" stroke-linecap="round" stroke-linejoin="miter"></path></svg>