<svg id="visual" viewBox="0 0 900 600" width="900" height="600" xmlns="http://www.w3.org/2000/svg" xmlns:xlink="http://www.w3.org/1999/xlink" version="1.1"><rect x="0" y="0" width="900" height="600" fill="#6b6969"></rect><path d="M0 416L21.5 422.2C43 428.3 86 440.7 128.8 445.3C171.7 450 214.3 447 257.2 417.3C300 387.7 343 331.3 385.8 319.2C428.7 307 471.3 339 514.2 351.2C557 363.3 600 355.7 642.8 363.3C685.7 371 728.3 394 771.2 382C814 370 857 323 878.5 299.5L900 276L900 601L878.5 601C857 601 814 601 771.2 601C728.3 601 685.7 601 642.8 601C600 601 557 601 514.2 601C471.3 601 428.7 601 385.8 601C343 601 300 601 257.2 601C214.3 601 171.7 601 128.8 601C86 601 43 601 21.5 601L0 601Z" fill="#7c1006" stroke-linecap="round" stroke-linejoin="miter"></path></svg>